<svg width="22" height="23" viewBox="0 0 22 23" fill="none" xmlns="http://www.w3.org/2000/svg">
<path d="M20.1667 0.5H1.83333C1.3471 0.5 0.880787 0.693154 0.536971 1.03697C0.193154 1.38079 0 1.8471 0 2.33333V20.6667C0 21.1529 0.193154 21.6192 0.536971 21.963C0.880787 22.3068 1.3471 22.5 1.83333 22.5H20.1667C20.6529 22.5 21.1192 22.3068 21.463 21.963C21.8068 21.6192 22 21.1529 22 20.6667V2.33333C22 1.8471 21.8068 1.38079 21.463 1.03697C21.1192 0.693154 20.6529 0.5 20.1667 0.5ZM17.4167 12.4167H11.9167V17.9167C11.9167 18.1598 11.8201 18.3929 11.6482 18.5648C11.4763 18.7368 11.2431 18.8333 11 18.8333C10.7569 18.8333 10.5237 18.7368 10.3518 18.5648C10.1799 18.3929 10.0833 18.1598 10.0833 17.9167V12.4167H4.58333C4.34022 12.4167 4.10706 12.3201 3.93515 12.1482C3.76324 11.9763 3.66667 11.7431 3.66667 11.5C3.66667 11.2569 3.76324 11.0237 3.93515 10.8518C4.10706 10.6799 4.34022 10.5833 4.58333 10.5833H10.0833V5.08333C10.0833 4.84022 10.1799 4.60706 10.3518 4.43515C10.5237 4.26324 10.7569 4.16667 11 4.16667C11.2431 4.16667 11.4763 4.26324 11.6482 4.43515C11.8201 4.60706 11.9167 4.84022 11.9167 5.08333V10.5833H17.4167C17.6598 10.5833 17.8929 10.6799 18.0648 10.8518C18.2368 11.0237 18.3333 11.2569 18.3333 11.5C18.3333 11.7431 18.2368 11.9763 18.0648 12.1482C17.8929 12.3201 17.6598 12.4167 17.4167 12.4167Z" fill="#33CE27"/>
</svg>
