<svg width="27" height="27" viewBox="0 0 27 27" fill="none" xmlns="http://www.w3.org/2000/svg">
<path fill-rule="evenodd" clip-rule="evenodd" d="M13.5 26.5C15.2072 26.5 16.8977 26.1637 18.4749 25.5104C20.0521 24.8571 21.4852 23.8995 22.6924 22.6924C23.8995 21.4852 24.8571 20.0521 25.5104 18.4749C26.1637 16.8977 26.5 15.2072 26.5 13.5C26.5 11.7928 26.1637 10.1023 25.5104 8.52512C24.8571 6.94788 23.8995 5.51477 22.6924 4.30761C21.4852 3.10045 20.0521 2.14288 18.4749 1.48957C16.8977 0.836255 15.2072 0.5 13.5 0.5C10.0522 0.5 6.74559 1.86964 4.30761 4.30761C1.86964 6.74558 0.500001 10.0522 0.500001 13.5C0.500001 16.9478 1.86964 20.2544 4.30761 22.6924C6.74559 25.1304 10.0522 26.5 13.5 26.5ZM13.1649 18.7578L20.3871 10.0911L18.1684 8.24222L11.9573 15.6941L8.74345 12.4788L6.701 14.5212L11.0343 18.8546L12.1523 19.9726L13.1649 18.7578Z" fill="#122315"/>
</svg>
