<svg width="40" height="40" viewBox="0 0 40 40" fill="none" xmlns="http://www.w3.org/2000/svg">
<g clip-path="url(#clip0_92_723)">
<path d="M26.2593 11.8657C26.2593 12.2365 26.1493 12.599 25.9433 12.9074C25.7372 13.2157 25.4444 13.456 25.1018 13.598C24.7592 13.7399 24.3822 13.777 24.0185 13.7047C23.6547 13.6323 23.3207 13.4537 23.0584 13.1915C22.7962 12.9293 22.6176 12.5952 22.5453 12.2315C22.4729 11.8678 22.5101 11.4908 22.652 11.1482C22.7939 10.8055 23.0342 10.5127 23.3426 10.3067C23.6509 10.1007 24.0134 9.99068 24.3843 9.99068C24.8815 9.99068 25.3584 10.1882 25.7101 10.5399C26.0617 10.8915 26.2593 11.3684 26.2593 11.8657ZM32.4889 24.5219C29.2452 28.6422 24.0749 30.8876 17.1124 31.2047L13.6749 39.2391C13.5786 39.4655 13.4177 39.6585 13.2123 39.7938C13.0069 39.9292 12.7662 40.0009 12.5202 40.0001H12.4405C12.1829 39.9839 11.9366 39.8884 11.7355 39.7267C11.5343 39.565 11.3882 39.345 11.3171 39.0969L9.003 30.9954L0.906129 28.6766C0.657334 28.6067 0.436312 28.4615 0.273484 28.2608C0.110655 28.0601 0.0140248 27.8139 -0.00310838 27.5561C-0.0202415 27.2982 0.0429648 27.0414 0.177812 26.8209C0.312658 26.6005 0.512516 26.4272 0.749879 26.3251L8.78582 22.8876C9.09832 15.9235 11.3499 10.7532 15.4718 7.511C22.2233 2.1985 31.8639 3.94381 33.728 4.34693C34.1976 4.4484 34.6281 4.68304 34.9678 5.02278C35.3075 5.36251 35.5422 5.79294 35.6436 6.26256C36.0561 8.12506 37.803 17.7751 32.4889 24.5313V24.5219ZM25.2499 26.9704C23.8049 26.4199 22.5464 25.4695 21.6217 24.2302C20.697 22.9908 20.1442 21.5139 20.028 19.9719C18.4864 19.856 17.0097 19.3034 15.7707 18.379C14.5316 17.4545 13.5814 16.1963 13.0311 14.7516C11.9374 17.2297 11.3499 20.2376 11.2655 23.7547C11.2597 23.9942 11.1851 24.227 11.0508 24.4253C10.9164 24.6237 10.7279 24.7792 10.5077 24.8735L4.97488 27.2407L10.3593 28.7829C10.5633 28.8413 10.7491 28.9507 10.8992 29.1007C11.0493 29.2508 11.1587 29.4366 11.2171 29.6407L12.7546 35.0251L15.1264 29.4922C15.221 29.2713 15.3773 29.0823 15.5766 28.9479C15.7758 28.8135 16.0096 28.7394 16.2499 28.7344C19.7624 28.6516 22.7702 28.061 25.2499 26.9704ZM33.2077 6.79225C31.5358 6.42975 22.8952 4.85631 17.0249 9.47662C16.285 10.0598 15.6126 10.7238 15.0202 11.4563C14.9602 12.2731 15.0793 13.0931 15.3692 13.8591C15.659 14.6251 16.1127 15.3185 16.6984 15.8909C17.284 16.4634 17.9877 16.901 18.7601 17.1733C19.5325 17.4456 20.355 17.5459 21.1702 17.4672C21.3534 17.4499 21.5383 17.4732 21.7115 17.5355C21.8847 17.5978 22.042 17.6976 22.1722 17.8278C22.3023 17.9579 22.4021 18.1152 22.4645 18.2884C22.5268 18.4617 22.5501 18.6465 22.5327 18.8297C22.454 19.6452 22.5544 20.468 22.8268 21.2407C23.0993 22.0133 23.5372 22.7171 24.11 23.3029C24.6828 23.8886 25.3766 24.3422 26.143 24.6318C26.9093 24.9215 27.7297 25.0402 28.5468 24.9797C29.2783 24.3884 29.9412 23.7171 30.5233 22.9782C35.1436 17.1079 33.5702 8.46568 33.2077 6.79225Z" fill="#FCFBF8"/>
</g>
<defs>
<clipPath id="clip0_92_723">
<rect width="40" height="40" fill="white"/>
</clipPath>
</defs>
</svg>
