<svg width="40" height="40" viewBox="0 0 40 40" fill="none" xmlns="http://www.w3.org/2000/svg">
<path d="M19.9999 3.33325C17.8112 3.33325 15.644 3.76435 13.6219 4.60193C11.5998 5.4395 9.76245 6.66716 8.21481 8.21481C5.0892 11.3404 3.33325 15.5796 3.33325 19.9999C3.33325 27.3666 8.11659 33.6166 14.7333 35.8333C15.5666 35.9666 15.8333 35.4499 15.8333 34.9999V32.1833C11.2166 33.1833 10.2333 29.9499 10.2333 29.9499C9.46658 28.0166 8.38325 27.4999 8.38325 27.4999C6.86659 26.4666 8.49992 26.4999 8.49992 26.4999C10.1666 26.6166 11.0499 28.2166 11.0499 28.2166C12.4999 30.7499 14.9499 29.9999 15.8999 29.5999C16.0499 28.5166 16.4833 27.7833 16.9499 27.3666C13.2499 26.9499 9.36658 25.5166 9.36658 19.1666C9.36658 17.3166 9.99992 15.8333 11.0833 14.6499C10.9166 14.2333 10.3333 12.4999 11.2499 10.2499C11.2499 10.2499 12.6499 9.79992 15.8333 11.9499C17.1499 11.5833 18.5833 11.3999 19.9999 11.3999C21.4166 11.3999 22.8499 11.5833 24.1666 11.9499C27.3499 9.79992 28.7499 10.2499 28.7499 10.2499C29.6666 12.4999 29.0833 14.2333 28.9166 14.6499C29.9999 15.8333 30.6332 17.3166 30.6332 19.1666C30.6332 25.5333 26.7333 26.9333 23.0166 27.3499C23.6166 27.8666 24.1666 28.8833 24.1666 30.4333V34.9999C24.1666 35.4499 24.4333 35.9833 25.2833 35.8333C31.8999 33.5999 36.6666 27.3666 36.6666 19.9999C36.6666 17.8112 36.2355 15.644 35.3979 13.6219C34.5603 11.5998 33.3327 9.76245 31.785 8.21481C30.2374 6.66716 28.4001 5.4395 26.378 4.60193C24.3559 3.76435 22.1886 3.33325 19.9999 3.33325Z" fill="#FCFBF8"/>
</svg>
