<svg width="54" height="50" viewBox="0 0 54 50" fill="none" xmlns="http://www.w3.org/2000/svg">
<rect width="54" height="50" rx="25" fill="#55DD4A"/>
<path d="M42 26.4444C42 28.0478 40.665 29.3333 39 29.3333H15C14.2044 29.3333 13.4413 29.029 12.8787 28.4872C12.3161 27.9454 12 27.2106 12 26.4444C12 25.6783 12.3161 24.9435 12.8787 24.4017C13.4413 23.8599 14.2044 23.5556 15 23.5556H28.5L32.25 26.4444L36 23.5556H39C39.7956 23.5556 40.5587 23.8599 41.1213 24.4017C41.6839 24.9435 42 25.6783 42 26.4444ZM27 12C13.5 12 13.5 20.6667 13.5 20.6667H40.5C40.5 20.6667 40.5 12 27 12ZM13.5 33.6667C13.5 36.0644 15.51 38 18 38H36C38.49 38 40.5 36.0644 40.5 33.6667V32.2222H13.5V33.6667Z" fill="#FCFBF8"/>
</svg>
