<svg width="40" height="40" viewBox="0 0 40 40" fill="none" xmlns="http://www.w3.org/2000/svg">
<path d="M26.1834 6.66671C27.5667 6.66671 28.8834 7.03337 30.0001 7.76671C31.9001 9.00004 33.0667 10.8834 33.3334 13.0667C33.4287 14.1243 33.2916 15.1899 32.9318 16.1889C32.5719 17.188 31.9979 18.0962 31.2501 18.85C30.0834 20 28.6001 20.7334 26.9667 20.9C23.7834 21.2334 20.9834 22.5 18.9001 24.6167C18.6482 24.8625 18.3103 25 17.9584 25C17.6065 25 17.2686 24.8625 17.0167 24.6167L15.3667 22.9667C15.2501 22.8511 15.1576 22.7135 15.0947 22.5619C15.0317 22.4102 14.9996 22.2476 15.0001 22.0834C15.0001 21.6667 15.1834 21.3 15.5334 20.95C17.5501 18.9167 18.7834 16.2167 19.0834 13.1167C19.3001 10.9 20.4834 9.00004 22.4167 7.75004C23.5167 7.03337 24.8167 6.66671 26.1834 6.66671ZM26.1834 3.33337C24.2334 3.33337 22.2834 3.86671 20.6001 4.95004C17.6667 6.83337 16.0501 9.76671 15.7667 12.8C15.5501 15 14.7167 17.05 13.1834 18.5834L13.1334 18.6334C11.2001 20.5667 11.2001 23.5167 13.0167 25.3167L14.6667 26.9667C15.5834 27.8834 16.7667 28.3334 17.9501 28.3334C19.1334 28.3334 20.3334 27.8834 21.2501 26.9667C22.8667 25.35 25.0001 24.4667 27.3167 24.2167C29.6001 23.9667 31.8334 22.9667 33.6001 21.2167C34.7084 20.1098 35.5538 18.768 36.0737 17.2903C36.5935 15.8127 36.7745 14.2371 36.6033 12.6801C36.432 11.123 35.913 9.62441 35.0845 8.29505C34.2559 6.96568 33.1392 5.83958 31.8167 5.00004C30.1334 3.88337 28.1667 3.33337 26.1834 3.33337ZM10.4334 33.1C10.8834 34.0334 10.7334 35.1667 9.95005 35.9334C9.61079 36.2778 9.1784 36.5156 8.7059 36.6178C8.23341 36.72 7.74136 36.6821 7.29012 36.5086C6.83888 36.3352 6.44806 36.0339 6.16561 35.6415C5.88316 35.2492 5.72136 34.783 5.70005 34.3C5.21711 34.2787 4.75088 34.1169 4.35855 33.8345C3.96623 33.552 3.66488 33.1612 3.49146 32.71C3.31804 32.2587 3.2801 31.7667 3.38229 31.2942C3.48447 30.8217 3.72234 30.3893 4.06672 30.05C4.83339 29.2834 5.98339 29.1167 6.90005 29.5667L11.0334 25.5167C11.2667 25.8334 11.5334 26.2 11.8334 26.5L13.4834 28.15C13.8334 28.4834 14.1667 28.7667 14.6001 29.0167L10.4334 33.1Z" fill="#FCFBF8"/>
</svg>
