<svg width="40" height="40" viewBox="0 0 40 40" fill="none" xmlns="http://www.w3.org/2000/svg">
<path d="M23.0718 26.45C24.0794 27.0952 25.242 27.4573 26.4377 27.4985C27.6334 27.5396 28.8182 27.2582 29.8677 26.6837C30.9172 26.1093 31.7928 25.263 32.4026 24.2336C33.0124 23.2043 33.3339 22.0298 33.3335 20.8334C33.3335 18.77 32.2952 15.6067 30.7002 13.0034C29.1885 10.5367 27.5402 9.16671 26.6668 9.16671C25.7935 9.16671 24.1452 10.5367 22.6335 13.0034C22.0247 14.0033 21.5034 15.0538 21.0752 16.1434C20.4745 14.9539 19.7618 13.8243 18.9468 12.77C20.8702 9.01671 23.7668 5.83337 26.6668 5.83337C31.6668 5.83337 36.6668 15.31 36.6668 20.8334C36.6672 22.5797 36.2103 24.2956 35.3416 25.8105C34.4728 27.3253 33.2225 28.5863 31.7151 29.4678C30.2076 30.3494 28.4956 30.8209 26.7494 30.8353C25.0032 30.8497 23.2836 30.4066 21.7618 29.55C22.3618 28.6117 22.8118 27.5667 23.0718 26.45ZM13.3335 34.1667C10.6813 34.1667 8.13779 33.1131 6.26243 31.2378C4.38706 29.3624 3.3335 26.8189 3.3335 24.1667C3.3335 18.6434 8.3335 9.16671 13.3335 9.16671C18.3335 9.16671 23.3335 18.6434 23.3335 24.1667C23.3335 26.8189 22.2799 29.3624 20.4046 31.2378C18.5292 33.1131 15.9857 34.1667 13.3335 34.1667ZM13.3335 30.8334C15.1016 30.8334 16.7973 30.131 18.0475 28.8808C19.2978 27.6305 20.0002 25.9348 20.0002 24.1667C20.0002 22.1034 18.9618 18.94 17.3668 16.3367C15.8552 13.87 14.2068 12.5 13.3335 12.5C12.4602 12.5 10.8118 13.87 9.30016 16.3367C7.70516 18.94 6.66683 22.1034 6.66683 24.1667C6.66683 25.9348 7.36921 27.6305 8.61945 28.8808C9.86969 30.131 11.5654 30.8334 13.3335 30.8334Z" fill="#FCFBF8"/>
</svg>
