<svg width="40" height="40" viewBox="0 0 40 40" fill="none" xmlns="http://www.w3.org/2000/svg">
<path d="M25 18.4383C20.8833 22.75 16.765 33.3333 16.765 33.3333C16.765 33.3333 10.8817 18.4383 5 15" stroke="#FCFBF8" stroke-width="2.5" stroke-linecap="round" stroke-linejoin="round"/>
<path d="M34.1598 9.29499L34.8698 16.6683C35.3298 21.4517 31.7448 25.71 26.9615 26.1717C22.2681 26.6217 18.0165 23.1917 17.5648 18.4983C17.4572 17.3823 17.5705 16.256 17.8982 15.1837C18.226 14.1115 18.7618 13.1143 19.4749 12.2492C20.1881 11.384 21.0647 10.6678 22.0547 10.1415C23.0447 9.61515 24.1287 9.289 25.2448 9.18166L33.1048 8.42499C33.2312 8.41281 33.3588 8.42565 33.4802 8.46278C33.6016 8.49992 33.7146 8.56062 33.8125 8.64141C33.9105 8.7222 33.9916 8.82151 34.0512 8.93365C34.1108 9.0458 34.1477 9.16858 34.1598 9.29499Z" stroke="#FCFBF8" stroke-width="2.5" stroke-linecap="round" stroke-linejoin="round"/>
</svg>
